<?xml version="1.0" encoding="utf-8"?>
<!-- Generator: Adobe Illustrator 24.0.2, SVG Export Plug-In . SVG Version: 6.00 Build 0)  -->
<svg version="1.1"
	 id="svg92" xmlns:cc="http://creativecommons.org/ns#" xmlns:dc="http://purl.org/dc/elements/1.1/" xmlns:inkscape="http://www.inkscape.org/namespaces/inkscape" xmlns:rdf="http://www.w3.org/1999/02/22-rdf-syntax-ns#" xmlns:sodipodi="http://sodipodi.sourceforge.net/DTD/sodipodi-0.dtd" xmlns:svg="http://www.w3.org/2000/svg"
	 xmlns="http://www.w3.org/2000/svg" xmlns:xlink="http://www.w3.org/1999/xlink" x="0px" y="0px" viewBox="0 0 369.3 549.1"
	 style="enable-background:new 0 0 369.3 549.1;" xml:space="preserve">
<style type="text/css">
	.st0{fill:#F1582C;}
</style>
<path id="path108" class="st0" d="M195.6,548.2c-0.5-0.5-0.9-18.5-0.9-40c0-33.7,0.3-39.3,2-39.9c2.9-1.1,6.2,2.1,5.3,5
	c-1.1,3.4,0.1,3.1,5.7-1.2c4.3-3.3,5.9-3.7,15.1-3.7c9.5,0,10.7,0.3,15.4,4.1c6.4,5.1,11.1,14.1,11.1,21.3c0,7.5-5,16.4-11.9,21.3
	c-5,3.5-6.8,4-14.7,4c-7.6,0-9.9-0.6-14.5-3.7c-3-2-5.7-3.7-5.9-3.7c-0.2,0-0.2,7.5,0,16.8c0.3,11.5-0.1,17.4-1.2,18.7
	C199.6,549.3,197,549.7,195.6,548.2L195.6,548.2z M229.8,511.3c5-2.1,11.2-8.9,12.4-13.6c1.4-5.7-0.7-12.4-5.5-17.2
	c-7.9-7.9-20.3-8-28.1-0.2c-7.3,7.3-7.7,16.9-0.9,24.9C213.8,512.6,221.6,514.7,229.8,511.3z M18.2,517.2C4.8,512.9-4,505.3,1.9,503
	c1-0.4,5.1,1.1,9,3.3c14.6,8.2,25.8,8.3,34.9,0.2c3.6-3.2,4.3-4.8,4.3-9.8c0-8.6-4.6-12.9-20.5-19.1c-20.8-8-28.5-18.2-23.4-31
	c4.4-10.9,16.5-16.4,30.2-13.5c8.3,1.7,15.7,5.8,15.7,8.8c0,3.4-3.4,3.7-9.2,0.7c-3.7-1.9-7.9-2.8-13.6-2.8c-7.5,0-8.5,0.4-12.7,4.5
	c-5.1,5.1-6,11.4-2.4,16.5c2.3,3.3,10.7,7.9,21.7,11.7c12.6,4.4,21.6,14.3,21.5,23.5c0,6.2-4.3,14.8-8.8,18
	C39.6,520.3,30.7,521.2,18.2,517.2L18.2,517.2z M70,516.8c-0.4-1.7-0.6-21-0.4-43l0.4-40h3.3h3.3l0.4,20.4l0.4,20.4l5.6-3.3
	c8.4-4.9,15.3-5.6,22.8-2.3c10.4,4.6,11.6,8.1,11.2,30.9c-0.3,18.3-0.5,19.3-3,19.3c-2.5,0-2.7-1.1-3.3-18.9
	c-0.6-17.5-0.9-19.1-3.8-22.2c-6.3-6.7-17.5-5.2-24.8,3.4l-4.7,5.5v14.3c0,7.9-0.4,15.3-0.8,16.4C75.3,520.9,70.8,520.3,70,516.8z
	 M144.2,516.3c-19.6-9.8-19.5-36,0.2-46c7.6-3.9,19.9-3.1,27.3,1.8c11.6,7.7,14.7,26,6.2,36.7c-5,6.3-14.1,11-21.2,11
	C153.4,519.8,148.3,518.4,144.2,516.3z M164.8,510.6c10.2-4.6,14.3-17.1,8.5-26.5c-8.2-13.4-27.2-12.7-34.4,1.3
	c-3.9,7.5-3,14,2.7,20.5C147.9,513,155.9,514.6,164.8,510.6L164.8,510.6z M275.3,518c-2.2-1-5.6-3.7-7.6-6c-10.7-12.7-7-34.7,7-41.9
	c6.6-3.4,19.2-2.6,25.2,1.7c7.6,5.4,12.6,21.3,7.3,23.3c-1.2,0.4-10.5,0.8-20.8,0.8h-18.6l0.9,3c2.1,6.7,5,10.6,9.3,12.4
	c5.9,2.5,14.1,2.4,20.3-0.1c2.7-1.1,5.7-1.7,6.6-1.4c3,1.2,1.9,5.6-1.9,7.4C297.5,519.7,280.2,520.3,275.3,518L275.3,518z
	 M301.3,485.7c0-1.2-2-4.2-4.5-6.7c-3.9-3.9-5.4-4.5-10.8-4.5c-5.5,0-6.9,0.6-11.5,5.2c-2.8,2.8-5.2,5.8-5.2,6.7c0,1,5.1,1.5,16,1.5
	C299.1,487.8,301.3,487.5,301.3,485.7L301.3,485.7z M335.2,517.3c-11.5-5.4-16.5-18.6-12.5-32.8c4.6-16.5,24.2-22.6,38.2-11.9
	c4.6,3.5,8.9,13,8.2,18.1c-0.4,3.1-0.6,3.2-20.4,3.8l-20,0.7l0.3,3.8c0.9,12.1,17.3,18,30.8,11c2.9-1.5,4.3-1.6,5.4-0.5
	C372.3,516.7,347.6,523.2,335.2,517.3z M361.3,485.7c0-1.2-2-4.2-4.5-6.7c-4-4-5.4-4.5-11.5-4.5s-7.5,0.5-11.5,4.5
	c-7.9,7.9-6.8,8.8,11.5,8.8C359.1,487.8,361.3,487.5,361.3,485.7L361.3,485.7z M55,400c-12.3-4.3-21.1-14.7-25.5-30.2
	c-0.8-2.9-5.4-59-10.2-124.5C10.8,129,10.7,126,13,121.3c4.5-9.2,6.2-9.5,55.2-9.5l43.5,0l0.9-10.3c3.6-40.7,19.4-75.2,41-89.6
	c26.9-17.9,62.4-13.2,83,11.1c16,18.8,27.4,48.9,29.7,77.9l0.9,11h43.8c48.2,0,51.2,0.4,55,7.8c1.1,2.2,2.1,6.9,2.2,10.4
	c0.2,10.2-15.9,227.1-17.4,234.5c-3.3,15.8-11.4,27.4-23.4,33.8l-6.7,3.5l-129.3,0.3C68.9,402.4,61.6,402.3,55,400z M212.7,345.7
	c11.6-3,19.1-7,26.8-14.3c16.4-15.4,18.1-39.2,4.1-57.6c-10.2-13.4-23-21.4-49.3-30.8c-33.2-11.9-45.7-24.6-41.2-41.9
	c2.3-8.6,7.7-14.7,17.8-19.9c16-8.2,33.5-7.1,52.7,3.3c9.8,5.3,12.7,5.6,15.5,1.6c4.3-6.2,1.6-10-12.2-16.9
	c-41.7-20.9-88.9-0.4-89,38.5c0,8.6,0.5,11,3.9,17.1c7.2,13.1,21.1,22.7,46.1,32c32.6,12.1,47.1,23.4,49.9,39
	c1.9,10.4-4,22.7-14,29.2c-19.8,12.8-52.5,9.5-77.8-7.9c-6.7-4.6-10.3-5.1-13.4-2c-3.6,3.6-2.5,8,2.9,12.5
	c9.4,7.7,30.4,17.1,43,19.2C187,348.3,205.4,347.6,212.7,345.7L212.7,345.7z M247.4,104.8c-7.3-57.1-29.2-87.2-61.4-84.7
	C163,22,145,42.2,136.6,75.4c-3.1,12.1-6,34.5-4.7,35.8c0.3,0.3,26.7,0.6,58.5,0.6h57.9L247.4,104.8z"/>
</svg>
